<?xml version="1.0" encoding="UTF-8"?>
<svg xmlns="http://www.w3.org/2000/svg" width="1400" height="560" viewBox="0 0 1400 560">
  <defs>
    <linearGradient id="bg" x1="0" y1="0" x2="1400" y2="560">
      <stop stop-color="#F8FBFF"/>
      <stop offset="1" stop-color="#E8F0FE"/>
    </linearGradient>
    <linearGradient id="mark" x1="0" y1="0" x2="1" y2="1">
      <stop stop-color="#1A73E8"/>
      <stop offset="0.62" stop-color="#18A058"/>
      <stop offset="1" stop-color="#111827"/>
    </linearGradient>
  </defs>
  <rect width="1400" height="560" rx="49" fill="url(#bg)"/>
  <circle cx="1290" cy="90" r="190" fill="#DFF7E8" opacity="0.72"/>
  <circle cx="1140" cy="520" r="180" fill="#D9E8FF" opacity="0.88"/>
  <rect x="112" y="101" width="252" height="252" rx="56" fill="url(#mark)"/>
  <g fill="none" stroke="#FFFFFF" stroke-width="25" stroke-linecap="round" stroke-linejoin="round" transform="translate(162 137) scale(1)">
    <path d="M70 85H15v145h55"/>
    <path d="M260 85h55v145h-55"/>
    <path d="M145 40 105 275"/>
    <path d="M190 40 230 275"/>
  </g>
  <text x="448" y="202" font-family="-apple-system, BlinkMacSystemFont, Segoe UI, Arial, sans-serif" font-size="98" font-weight="800" fill="#102A43">LibSniffer</text>
  <text x="448" y="280" font-family="-apple-system, BlinkMacSystemFont, Segoe UI, Arial, sans-serif" font-size="49" font-weight="600" fill="#334E68">Fast website technology detection</text>
  <g font-family="-apple-system, BlinkMacSystemFont, Segoe UI, Arial, sans-serif" font-size="36" font-weight="700">
    <rect x="448" y="347" width="224" height="56" rx="14" fill="#FFFFFF"/>
    <text x="483" y="384" fill="#1A73E8">Frameworks</text>
    <rect x="700" y="347" width="168" height="56" rx="14" fill="#FFFFFF"/>
    <text x="749" y="384" fill="#18A058">CDN</text>
    <rect x="896" y="347" width="224" height="56" rx="14" fill="#FFFFFF"/>
    <text x="935" y="384" fill="#111827">Security</text>
  </g>
</svg>