<?xml version="1.0" encoding="UTF-8"?>
<svg xmlns="http://www.w3.org/2000/svg" width="440" height="280" viewBox="0 0 440 280">
  <defs>
    <linearGradient id="bg" x1="0" y1="0" x2="440" y2="280">
      <stop stop-color="#F8FBFF"/>
      <stop offset="1" stop-color="#E8F0FE"/>
    </linearGradient>
    <linearGradient id="mark" x1="0" y1="0" x2="1" y2="1">
      <stop stop-color="#1A73E8"/>
      <stop offset="0.62" stop-color="#18A058"/>
      <stop offset="1" stop-color="#111827"/>
    </linearGradient>
  </defs>
  <rect width="440" height="280" rx="15" fill="url(#bg)"/>
  <circle cx="330" cy="90" r="190" fill="#DFF7E8" opacity="0.72"/>
  <circle cx="180" cy="240" r="180" fill="#D9E8FF" opacity="0.88"/>
  <rect x="35" y="50" width="79" height="79" rx="18" fill="url(#mark)"/>
  <g fill="none" stroke="#FFFFFF" stroke-width="8" stroke-linecap="round" stroke-linejoin="round" transform="translate(51 69) scale(0.3142857142857143)">
    <path d="M70 85H15v145h55"/>
    <path d="M260 85h55v145h-55"/>
    <path d="M145 40 105 275"/>
    <path d="M190 40 230 275"/>
  </g>
  <text x="141" y="101" font-family="-apple-system, BlinkMacSystemFont, Segoe UI, Arial, sans-serif" font-size="31" font-weight="800" fill="#102A43">LibSniffer</text>
  <text x="141" y="140" font-family="-apple-system, BlinkMacSystemFont, Segoe UI, Arial, sans-serif" font-size="15" font-weight="600" fill="#334E68">Website tech detector</text>
  <g font-family="-apple-system, BlinkMacSystemFont, Segoe UI, Arial, sans-serif" font-size="11" font-weight="700">
    <rect x="141" y="174" width="70" height="28" rx="14" fill="#FFFFFF"/>
    <text x="152" y="192" fill="#1A73E8">Frameworks</text>
    <rect x="220" y="174" width="53" height="28" rx="14" fill="#FFFFFF"/>
    <text x="235" y="192" fill="#18A058">CDN</text>
    <rect x="282" y="174" width="70" height="28" rx="14" fill="#FFFFFF"/>
    <text x="294" y="192" fill="#111827">Security</text>
  </g>
</svg>