<?xml version="1.0" encoding="UTF-8"?>
<svg xmlns="http://www.w3.org/2000/svg" width="920" height="680" viewBox="0 0 920 680">
  <defs>
    <linearGradient id="bg" x1="0" y1="0" x2="920" y2="680">
      <stop stop-color="#F8FBFF"/>
      <stop offset="1" stop-color="#E8F0FE"/>
    </linearGradient>
    <linearGradient id="mark" x1="0" y1="0" x2="1" y2="1">
      <stop stop-color="#1A73E8"/>
      <stop offset="0.62" stop-color="#18A058"/>
      <stop offset="1" stop-color="#111827"/>
    </linearGradient>
  </defs>
  <rect width="920" height="680" rx="32" fill="url(#bg)"/>
  <circle cx="810" cy="90" r="190" fill="#DFF7E8" opacity="0.72"/>
  <circle cx="660" cy="640" r="180" fill="#D9E8FF" opacity="0.88"/>
  <rect x="74" y="122" width="166" height="166" rx="37" fill="url(#mark)"/>
  <g fill="none" stroke="#FFFFFF" stroke-width="17" stroke-linecap="round" stroke-linejoin="round" transform="translate(107 167) scale(0.6571428571428571)">
    <path d="M70 85H15v145h55"/>
    <path d="M260 85h55v145h-55"/>
    <path d="M145 40 105 275"/>
    <path d="M190 40 230 275"/>
  </g>
  <text x="294" y="245" font-family="-apple-system, BlinkMacSystemFont, Segoe UI, Arial, sans-serif" font-size="64" font-weight="800" fill="#102A43">LibSniffer</text>
  <text x="294" y="340" font-family="-apple-system, BlinkMacSystemFont, Segoe UI, Arial, sans-serif" font-size="32" font-weight="600" fill="#334E68">Frameworks, CDN, security</text>
  <g font-family="-apple-system, BlinkMacSystemFont, Segoe UI, Arial, sans-serif" font-size="24" font-weight="700">
    <rect x="294" y="422" width="147" height="68" rx="14" fill="#FFFFFF"/>
    <text x="317" y="466" fill="#1A73E8">Frameworks</text>
    <rect x="460" y="422" width="110" height="68" rx="14" fill="#FFFFFF"/>
    <text x="492" y="466" fill="#18A058">CDN</text>
    <rect x="589" y="422" width="147" height="68" rx="14" fill="#FFFFFF"/>
    <text x="615" y="466" fill="#111827">Security</text>
  </g>
</svg>